<mxfile host="app.diagrams.net" modified="2021-12-10T01:37:38.865Z" agent="5.0 (Windows NT 6.1; Win64; x64) AppleWebKit/537.36 (KHTML, like Gecko) Chrome/94.0.4606.61 Safari/537.36" etag="TFf0SAURlmQIdL7xgYa_" version="15.9.4" type="github">
  <diagram id="ZVp0tW4-20thm6wqHYiO" name="Page-1">
    <mxGraphModel dx="2062" dy="1154" grid="1" gridSize="10" guides="1" tooltips="1" connect="1" arrows="1" fold="1" page="1" pageScale="1" pageWidth="827" pageHeight="1169" math="0" shadow="0">
      <root>
        <mxCell id="0" />
        <mxCell id="1" parent="0" />
        <mxCell id="ZHWcS--ucJLf8dzum_xd-10" style="edgeStyle=orthogonalEdgeStyle;rounded=0;orthogonalLoop=1;jettySize=auto;html=1;entryX=0.5;entryY=0;entryDx=0;entryDy=0;" edge="1" parent="1" source="ZHWcS--ucJLf8dzum_xd-1" target="ZHWcS--ucJLf8dzum_xd-3">
          <mxGeometry relative="1" as="geometry" />
        </mxCell>
        <mxCell id="ZHWcS--ucJLf8dzum_xd-1" value="" style="ellipse;whiteSpace=wrap;html=1;" vertex="1" parent="1">
          <mxGeometry x="310" y="50" width="120" height="80" as="geometry" />
        </mxCell>
        <mxCell id="ZHWcS--ucJLf8dzum_xd-11" style="edgeStyle=orthogonalEdgeStyle;rounded=0;orthogonalLoop=1;jettySize=auto;html=1;entryX=0.5;entryY=0;entryDx=0;entryDy=0;" edge="1" parent="1" source="ZHWcS--ucJLf8dzum_xd-3" target="ZHWcS--ucJLf8dzum_xd-4">
          <mxGeometry relative="1" as="geometry" />
        </mxCell>
        <mxCell id="ZHWcS--ucJLf8dzum_xd-3" value="" style="rounded=0;whiteSpace=wrap;html=1;" vertex="1" parent="1">
          <mxGeometry x="310" y="180" width="120" height="60" as="geometry" />
        </mxCell>
        <mxCell id="ZHWcS--ucJLf8dzum_xd-12" style="edgeStyle=orthogonalEdgeStyle;rounded=0;orthogonalLoop=1;jettySize=auto;html=1;entryX=0.5;entryY=0;entryDx=0;entryDy=0;" edge="1" parent="1" source="ZHWcS--ucJLf8dzum_xd-4" target="ZHWcS--ucJLf8dzum_xd-5">
          <mxGeometry relative="1" as="geometry" />
        </mxCell>
        <mxCell id="ZHWcS--ucJLf8dzum_xd-19" style="edgeStyle=orthogonalEdgeStyle;rounded=0;orthogonalLoop=1;jettySize=auto;html=1;startArrow=none;startFill=0;endArrow=none;endFill=0;" edge="1" parent="1" source="ZHWcS--ucJLf8dzum_xd-4">
          <mxGeometry relative="1" as="geometry">
            <mxPoint x="720" y="650" as="targetPoint" />
          </mxGeometry>
        </mxCell>
        <mxCell id="ZHWcS--ucJLf8dzum_xd-4" value="" style="rhombus;whiteSpace=wrap;html=1;" vertex="1" parent="1">
          <mxGeometry x="330" y="290" width="80" height="80" as="geometry" />
        </mxCell>
        <mxCell id="ZHWcS--ucJLf8dzum_xd-13" style="edgeStyle=orthogonalEdgeStyle;rounded=0;orthogonalLoop=1;jettySize=auto;html=1;entryX=0.5;entryY=0;entryDx=0;entryDy=0;" edge="1" parent="1" source="ZHWcS--ucJLf8dzum_xd-5" target="ZHWcS--ucJLf8dzum_xd-8">
          <mxGeometry relative="1" as="geometry" />
        </mxCell>
        <mxCell id="ZHWcS--ucJLf8dzum_xd-5" value="" style="rounded=0;whiteSpace=wrap;html=1;" vertex="1" parent="1">
          <mxGeometry x="310" y="460" width="120" height="60" as="geometry" />
        </mxCell>
        <mxCell id="ZHWcS--ucJLf8dzum_xd-14" style="edgeStyle=orthogonalEdgeStyle;rounded=0;orthogonalLoop=1;jettySize=auto;html=1;entryX=0.5;entryY=0;entryDx=0;entryDy=0;" edge="1" parent="1" source="ZHWcS--ucJLf8dzum_xd-8" target="ZHWcS--ucJLf8dzum_xd-9">
          <mxGeometry relative="1" as="geometry" />
        </mxCell>
        <mxCell id="ZHWcS--ucJLf8dzum_xd-20" style="edgeStyle=orthogonalEdgeStyle;rounded=0;orthogonalLoop=1;jettySize=auto;html=1;startArrow=classic;startFill=1;endArrow=none;endFill=0;" edge="1" parent="1" source="ZHWcS--ucJLf8dzum_xd-8">
          <mxGeometry relative="1" as="geometry">
            <mxPoint x="720" y="650" as="targetPoint" />
          </mxGeometry>
        </mxCell>
        <mxCell id="ZHWcS--ucJLf8dzum_xd-8" value="" style="rounded=0;whiteSpace=wrap;html=1;" vertex="1" parent="1">
          <mxGeometry x="310" y="620" width="120" height="60" as="geometry" />
        </mxCell>
        <mxCell id="ZHWcS--ucJLf8dzum_xd-9" value="" style="ellipse;whiteSpace=wrap;html=1;" vertex="1" parent="1">
          <mxGeometry x="310" y="760" width="120" height="80" as="geometry" />
        </mxCell>
      </root>
    </mxGraphModel>
  </diagram>
</mxfile>
